{
  "asset": {
    "version": "2.0",
    "generator": "THREE.GLTFExporter"
  },
  "scenes": [
    {
      "name": "Scene",
      "nodes": [
        9
      ]
    }
  ],
  "scene": 0,
  "nodes": [
    {
      "name": "Plane005",
      "extras": {
        "name": "Plane.005"
      },
      "mesh": 0
    },
    {
      "name": "Plane007",
      "extras": {
        "name": "Plane.007"
      },
      "mesh": 1
    },
    {
      "name": "Plane008",
      "extras": {
        "name": "Plane.008"
      },
      "mesh": 2
    },
    {
      "name": "Plane009",
      "extras": {
        "name": "Plane.009"
      },
      "mesh": 3
    },
    {
      "name": "Plane006",
      "extras": {
        "name": "Plane.006"
      },
      "mesh": 4
    },
    {
      "name": "Circle001",
      "extras": {
        "name": "Circle.001"
      },
      "mesh": 5
    },
    {
      "name": "Default",
      "extras": {
        "name": "Default"
      },
      "children": [
        0,
        1,
        2,
        3,
        4,
        5
      ]
    },
    {
      "matrix": [
        0.0010000000474974513,
        0,
        0,
        0,
        0,
        0.0010000000474974513,
        0,
        0,
        0,
        0,
        0.0010000000474974513,
        0,
        0,
        0,
        0,
        1
      ],
      "name": "Assembly-2",
      "extras": {
        "name": "Assembly-2"
      },
      "children": [
        6
      ]
    },
    {
      "matrix": [
        1,
        0,
        0,
        0,
        0,
        4.489664195972409e-11,
        -1,
        0,
        0,
        1,
        4.489664195972409e-11,
        0,
        0,
        0,
        0,
        1
      ],
      "name": "Node_#0",
      "extras": {
        "name": "Node #0"
      },
      "children": [
        7
      ]
    },
    {
      "name": "sofa1(1).glb",
      "children": [
        8
      ]
    }
  ],
  "bufferViews": [
    {
      "buffer": 0,
      "byteOffset": 0,
      "byteLength": 2592,
      "target": 34962,
      "byteStride": 12
    },
    {
      "buffer": 0,
      "byteOffset": 2592,
      "byteLength": 2592,
      "target": 34962,
      "byteStride": 12
    },
    {
      "buffer": 0,
      "byteOffset": 5184,
      "byteLength": 5136,
      "target": 34963
    },
    {
      "buffer": 0,
      "byteOffset": 10320,
      "byteLength": 12048,
      "target": 34962,
      "byteStride": 12
    },
    {
      "buffer": 0,
      "byteOffset": 22368,
      "byteLength": 12048,
      "target": 34962,
      "byteStride": 12
    },
    {
      "buffer": 0,
      "byteOffset": 34416,
      "byteLength": 24000,
      "target": 34963
    },
    {
      "buffer": 0,
      "byteOffset": 58416,
      "byteLength": 33624,
      "target": 34962,
      "byteStride": 12
    },
    {
      "buffer": 0,
      "byteOffset": 92040,
      "byteLength": 33624,
      "target": 34962,
      "byteStride": 12
    },
    {
      "buffer": 0,
      "byteOffset": 125664,
      "byteLength": 67200,
      "target": 34963
    },
    {
      "buffer": 0,
      "byteOffset": 192864,
      "byteLength": 44568,
      "target": 34962,
      "byteStride": 12
    },
    {
      "buffer": 0,
      "byteOffset": 237432,
      "byteLength": 44568,
      "target": 34962,
      "byteStride": 12
    },
    {
      "buffer": 0,
      "byteOffset": 282000,
      "byteLength": 89088,
      "target": 34963
    },
    {
      "buffer": 0,
      "byteOffset": 371088,
      "byteLength": 4176,
      "target": 34962,
      "byteStride": 12
    },
    {
      "buffer": 0,
      "byteOffset": 375264,
      "byteLength": 4176,
      "target": 34962,
      "byteStride": 12
    },
    {
      "buffer": 0,
      "byteOffset": 379440,
      "byteLength": 8304,
      "target": 34963
    },
    {
      "buffer": 0,
      "byteOffset": 387744,
      "byteLength": 5040,
      "target": 34962,
      "byteStride": 12
    },
    {
      "buffer": 0,
      "byteOffset": 392784,
      "byteLength": 5040,
      "target": 34962,
      "byteStride": 12
    },
    {
      "buffer": 0,
      "byteOffset": 397824,
      "byteLength": 9216,
      "target": 34963
    }
  ],
  "buffers": [
    {
      "byteLength": 407040,
      "uri": "data:application/octet-stream;base64,"
    }
  ],
  "accessors": [
    {
      "bufferView": 0,
      "componentType": 5126,
      "count": 216,
      "max": [
        2949.505859375,
        1109.0621337890625,
        688.6903076171875
      ],
      "min": [
        1847.3699951171875,
        106.55780029296875,
        485.86175537109375
      ],
      "type": "VEC3"
    },
    {
      "bufferView": 1,
      "componentType": 5126,
      "count": 216,
      "max": [
        0.9999804496765137,
        0.9999961853027344,
        0.9999960660934448
      ],
      "min": [
        -0.9999367594718933,
        -0.9998700618743896,
        -0.9999960660934448
      ],
      "type": "VEC3"
    },
    {
      "bufferView": 2,
      "componentType": 5125,
      "count": 1284,
      "max": [
        215
      ],
      "min": [
        0
      ],
      "type": "SCALAR"
    },
    {
      "bufferView": 3,
      "componentType": 5126,
      "count": 1004,
      "max": [
        2952.16845703125,
        1314.4862060546875,
        1320.253173828125
      ],
      "min": [
        1844.927978515625,
        -94.33033752441406,
        477.8698425292969
      ],
      "type": "VEC3"
    },
    {
      "bufferView": 4,
      "componentType": 5126,
      "count": 1004,
      "max": [
        0.9999980926513672,
        1,
        0.9999980926513672
      ],
      "min": [
        -0.9999980926513672,
        -1,
        -0.9999960660934448
      ],
      "type": "VEC3"
    },
    {
      "bufferView": 5,
      "componentType": 5125,
      "count": 6000,
      "max": [
        1003
      ],
      "min": [
        0
      ],
      "type": "SCALAR"
    },
    {
      "bufferView": 6,
      "componentType": 5126,
      "count": 2802,
      "max": [
        2962.0341796875,
        1122.0772705078125,
        951.531005859375
      ],
      "min": [
        1837.8873291015625,
        96.12085723876953,
        645.775146484375
      ],
      "type": "VEC3"
    },
    {
      "bufferView": 7,
      "componentType": 5126,
      "count": 2802,
      "max": [
        0.9999107718467712,
        0.9998735189437866,
        0.9999980926513672
      ],
      "min": [
        -0.9998193383216858,
        -0.9997975826263428,
        -0.9999980926513672
      ],
      "type": "VEC3"
    },
    {
      "bufferView": 8,
      "componentType": 5125,
      "count": 16800,
      "max": [
        2801
      ],
      "min": [
        0
      ],
      "type": "SCALAR"
    },
    {
      "bufferView": 9,
      "componentType": 5126,
      "count": 3714,
      "max": [
        2994.455078125,
        1119.073974609375,
        1609.190673828125
      ],
      "min": [
        2662.349609375,
        99.41786193847656,
        852.9285278320312
      ],
      "type": "VEC3"
    },
    {
      "bufferView": 10,
      "componentType": 5126,
      "count": 3714,
      "max": [
        0.9998735189437866,
        0.9999746084213257,
        0.9999805092811584
      ],
      "min": [
        -0.9995813369750977,
        -0.999960720539093,
        -0.999894917011261
      ],
      "type": "VEC3"
    },
    {
      "bufferView": 11,
      "componentType": 5125,
      "count": 22272,
      "max": [
        3713
      ],
      "min": [
        0
      ],
      "type": "SCALAR"
    },
    {
      "bufferView": 12,
      "componentType": 5126,
      "count": 348,
      "max": [
        3152.15087890625,
        1303.9945068359375,
        1289.427978515625
      ],
      "min": [
        2946.4951171875,
        -87.6861572265625,
        487.1070556640625
      ],
      "type": "VEC3"
    },
    {
      "bufferView": 13,
      "componentType": 5126,
      "count": 348,
      "max": [
        0.9999980926513672,
        0.9999980926513672,
        0.9999960660934448
      ],
      "min": [
        -0.9999980926513672,
        -0.9999922513961792,
        -0.9999980926513672
      ],
      "type": "VEC3"
    },
    {
      "bufferView": 14,
      "componentType": 5125,
      "count": 2076,
      "max": [
        347
      ],
      "min": [
        0
      ],
      "type": "SCALAR"
    },
    {
      "bufferView": 15,
      "componentType": 5126,
      "count": 420,
      "max": [
        3102.27490234375,
        1243.78955078125,
        500.6752624511719
      ],
      "min": [
        1897.700439453125,
        -25.394493103027344,
        389.0415954589844
      ],
      "type": "VEC3"
    },
    {
      "bufferView": 16,
      "componentType": 5126,
      "count": 420,
      "max": [
        1,
        1,
        0
      ],
      "min": [
        -1,
        -1,
        -1
      ],
      "type": "VEC3"
    },
    {
      "bufferView": 17,
      "componentType": 5125,
      "count": 2304,
      "max": [
        419
      ],
      "min": [
        0
      ],
      "type": "SCALAR"
    }
  ],
  "materials": [
    {
      "pbrMetallicRoughness": {
        "baseColorFactor": [
          0.800000011920929,
          0.800000011920929,
          0.800000011920929,
          1
        ],
        "metallicFactor": 0.5,
        "roughnessFactor": 0.5
      },
      "doubleSided": true,
      "extras": {
        "gltfExtensions": {
          "KHR_materials_pbrSpecularGlossiness": {
            "diffuseFactor": [
              0.800000011920929,
              0.800000011920929,
              0.800000011920929,
              1
            ],
            "specularFactor": [
              0.800000011920929,
              0.800000011920929,
              0.800000011920929
            ],
            "glossinessFactor": 0.5
          }
        }
      }
    },
    {
      "pbrMetallicRoughness": {
        "baseColorFactor": [
          0.800000011920929,
          0.800000011920929,
          0.800000011920929,
          1
        ],
        "metallicFactor": 0.5,
        "roughnessFactor": 0.5
      },
      "doubleSided": true,
      "extras": {
        "gltfExtensions": {
          "KHR_materials_pbrSpecularGlossiness": {
            "diffuseFactor": [
              0.800000011920929,
              0.800000011920929,
              0.800000011920929,
              1
            ],
            "specularFactor": [
              0.800000011920929,
              0.800000011920929,
              0.800000011920929
            ],
            "glossinessFactor": 0.5
          }
        }
      }
    },
    {
      "pbrMetallicRoughness": {
        "baseColorFactor": [
          0.800000011920929,
          0.800000011920929,
          0.800000011920929,
          1
        ],
        "metallicFactor": 0.5,
        "roughnessFactor": 0.5
      },
      "doubleSided": true,
      "extras": {
        "gltfExtensions": {
          "KHR_materials_pbrSpecularGlossiness": {
            "diffuseFactor": [
              0.800000011920929,
              0.800000011920929,
              0.800000011920929,
              1
            ],
            "specularFactor": [
              0.800000011920929,
              0.800000011920929,
              0.800000011920929
            ],
            "glossinessFactor": 0.5
          }
        }
      }
    },
    {
      "pbrMetallicRoughness": {
        "baseColorFactor": [
          0.800000011920929,
          0.800000011920929,
          0.800000011920929,
          1
        ],
        "metallicFactor": 0.5,
        "roughnessFactor": 0.5
      },
      "doubleSided": true,
      "extras": {
        "gltfExtensions": {
          "KHR_materials_pbrSpecularGlossiness": {
            "diffuseFactor": [
              0.800000011920929,
              0.800000011920929,
              0.800000011920929,
              1
            ],
            "specularFactor": [
              0.800000011920929,
              0.800000011920929,
              0.800000011920929
            ],
            "glossinessFactor": 0.5
          }
        }
      }
    },
    {
      "pbrMetallicRoughness": {
        "baseColorFactor": [
          0.800000011920929,
          0.800000011920929,
          0.800000011920929,
          1
        ],
        "metallicFactor": 0.5,
        "roughnessFactor": 0.5
      },
      "doubleSided": true,
      "extras": {
        "gltfExtensions": {
          "KHR_materials_pbrSpecularGlossiness": {
            "diffuseFactor": [
              0.800000011920929,
              0.800000011920929,
              0.800000011920929,
              1
            ],
            "specularFactor": [
              0.800000011920929,
              0.800000011920929,
              0.800000011920929
            ],
            "glossinessFactor": 0.5
          }
        }
      }
    },
    {
      "pbrMetallicRoughness": {
        "baseColorFactor": [
          0.800000011920929,
          0.800000011920929,
          0.800000011920929,
          1
        ],
        "metallicFactor": 0.5,
        "roughnessFactor": 0.5
      },
      "doubleSided": true,
      "extras": {
        "gltfExtensions": {
          "KHR_materials_pbrSpecularGlossiness": {
            "diffuseFactor": [
              0.800000011920929,
              0.800000011920929,
              0.800000011920929,
              1
            ],
            "specularFactor": [
              0.800000011920929,
              0.800000011920929,
              0.800000011920929
            ],
            "glossinessFactor": 0.5
          }
        }
      }
    }
  ],
  "meshes": [
    {
      "primitives": [
        {
          "mode": 4,
          "attributes": {
            "POSITION": 0,
            "NORMAL": 1
          },
          "indices": 2,
          "material": 0
        }
      ]
    },
    {
      "primitives": [
        {
          "mode": 4,
          "attributes": {
            "POSITION": 3,
            "NORMAL": 4
          },
          "indices": 5,
          "material": 1
        }
      ]
    },
    {
      "primitives": [
        {
          "mode": 4,
          "attributes": {
            "POSITION": 6,
            "NORMAL": 7
          },
          "indices": 8,
          "material": 2
        }
      ]
    },
    {
      "primitives": [
        {
          "mode": 4,
          "attributes": {
            "POSITION": 9,
            "NORMAL": 10
          },
          "indices": 11,
          "material": 3
        }
      ]
    },
    {
      "primitives": [
        {
          "mode": 4,
          "attributes": {
            "POSITION": 12,
            "NORMAL": 13
          },
          "indices": 14,
          "material": 4
        }
      ]
    },
    {
      "primitives": [
        {
          "mode": 4,
          "attributes": {
            "POSITION": 15,
            "NORMAL": 16
          },
          "indices": 17,
          "material": 5
        }
      ]
    }
  ]
}